<svg width="24" height="25" viewBox="0 0 24 25" fill="none" xmlns="http://www.w3.org/2000/svg">
<path d="M3.75 10.4375V21.5C3.75 21.6989 3.82902 21.8897 3.96967 22.0303C4.11032 22.171 4.30109 22.25 4.5 22.25H9V15.875C9 15.5766 9.11853 15.2905 9.3295 15.0795C9.54048 14.8685 9.82663 14.75 10.125 14.75H13.875C14.1734 14.75 14.4595 14.8685 14.6705 15.0795C14.8815 15.2905 15 15.5766 15 15.875V22.25H19.5C19.6989 22.25 19.8897 22.171 20.0303 22.0303C20.171 21.8897 20.25 21.6989 20.25 21.5V10.4375" stroke="#FA8E00" stroke-width="1.5" stroke-linecap="round" stroke-linejoin="round"/>
<path d="M22.5 12.5L12.5105 2.93751C12.2761 2.69001 11.7281 2.68719 11.4895 2.93751L1.5 12.5M18.75 8.89063V3.50001H16.5V6.73438" stroke="#FA8E00" stroke-width="1.5" stroke-linecap="round" stroke-linejoin="round"/>
</svg>
