<svg width="17" height="16" viewBox="0 0 17 16" fill="none" xmlns="http://www.w3.org/2000/svg">
<path d="M8.5 1.5C5.86035 1.5 3.71875 3.41844 3.71875 5.78125C3.71875 8.5 6.90625 12.8084 8.07666 14.2966C8.12524 14.3594 8.18892 14.4105 8.26249 14.4457C8.33606 14.481 8.41745 14.4994 8.5 14.4994C8.58255 14.4994 8.66394 14.481 8.73751 14.4457C8.81108 14.4105 8.87476 14.3594 8.92334 14.2966C10.0938 12.8091 13.2812 8.50219 13.2812 5.78125C13.2812 3.41844 11.1396 1.5 8.5 1.5Z" stroke="#555555" stroke-linecap="round" stroke-linejoin="round"/>
<path d="M8.5 7.5C9.3802 7.5 10.0938 6.82843 10.0938 6C10.0938 5.17157 9.3802 4.5 8.5 4.5C7.6198 4.5 6.90625 5.17157 6.90625 6C6.90625 6.82843 7.6198 7.5 8.5 7.5Z" stroke="#555555" stroke-linecap="round" stroke-linejoin="round"/>
</svg>
