<svg width="22" height="22" viewBox="0 0 22 22" fill="none" xmlns="http://www.w3.org/2000/svg">
<path d="M11 2.0625C6.07191 2.0625 2.0625 6.07191 2.0625 11C2.0625 15.9281 6.07191 19.9375 11 19.9375C15.9281 19.9375 19.9375 15.9281 19.9375 11C19.9375 6.07191 15.9281 2.0625 11 2.0625ZM7.21875 15.0391C7.01479 15.0391 6.81541 14.9786 6.64582 14.8653C6.47623 14.752 6.34405 14.5909 6.266 14.4025C6.18795 14.214 6.16752 14.0067 6.20731 13.8066C6.24711 13.6066 6.34532 13.4228 6.48955 13.2786C6.63377 13.1344 6.81752 13.0362 7.01756 12.9964C7.21761 12.9566 7.42496 12.977 7.61339 13.0551C7.80183 13.1331 7.96289 13.2653 8.0762 13.4349C8.18952 13.6045 8.25 13.8039 8.25 14.0078C8.25 14.2813 8.14135 14.5436 7.94795 14.737C7.75456 14.9304 7.49225 15.0391 7.21875 15.0391ZM7.21875 11.9883C7.01479 11.9883 6.81541 11.9278 6.64582 11.8145C6.47623 11.7012 6.34405 11.5401 6.266 11.3517C6.18795 11.1632 6.16752 10.9559 6.20731 10.7558C6.24711 10.5558 6.34532 10.3721 6.48955 10.2278C6.63377 10.0836 6.81752 9.98539 7.01756 9.9456C7.21761 9.90581 7.42496 9.92623 7.61339 10.0043C7.80183 10.0823 7.96289 10.2145 8.0762 10.3841C8.18952 10.5537 8.25 10.7531 8.25 10.957C8.25 11.2305 8.14135 11.4928 7.94795 11.6862C7.75456 11.8796 7.49225 11.9883 7.21875 11.9883ZM7.21875 8.85156C7.01479 8.85156 6.81541 8.79108 6.64582 8.67777C6.47623 8.56445 6.34405 8.40339 6.266 8.21495C6.18795 8.02652 6.16752 7.81917 6.20731 7.61913C6.24711 7.41908 6.34532 7.23533 6.48955 7.09111C6.63377 6.94689 6.81752 6.84867 7.01756 6.80888C7.21761 6.76909 7.42496 6.78951 7.61339 6.86756C7.80183 6.94561 7.96289 7.07779 8.0762 7.24738C8.18952 7.41697 8.25 7.61635 8.25 7.82031C8.25 8.09382 8.14135 8.35612 7.94795 8.54952C7.75456 8.74291 7.49225 8.85156 7.21875 8.85156ZM15.125 14.6523H9.625C9.44266 14.6523 9.2678 14.5799 9.13886 14.451C9.00993 14.322 8.9375 14.1472 8.9375 13.9648C8.9375 13.7825 9.00993 13.6076 9.13886 13.4787C9.2678 13.3498 9.44266 13.2773 9.625 13.2773H15.125C15.3073 13.2773 15.4822 13.3498 15.6111 13.4787C15.7401 13.6076 15.8125 13.7825 15.8125 13.9648C15.8125 14.1472 15.7401 14.322 15.6111 14.451C15.4822 14.5799 15.3073 14.6523 15.125 14.6523ZM15.125 11.6016H9.625C9.44266 11.6016 9.2678 11.5291 9.13886 11.4002C9.00993 11.2713 8.9375 11.0964 8.9375 10.9141C8.9375 10.7317 9.00993 10.5569 9.13886 10.4279C9.2678 10.299 9.44266 10.2266 9.625 10.2266H15.125C15.3073 10.2266 15.4822 10.299 15.6111 10.4279C15.7401 10.5569 15.8125 10.7317 15.8125 10.9141C15.8125 11.0964 15.7401 11.2713 15.6111 11.4002C15.4822 11.5291 15.3073 11.6016 15.125 11.6016ZM15.125 8.50781H9.625C9.44266 8.50781 9.2678 8.43538 9.13886 8.30645C9.00993 8.17752 8.9375 8.00265 8.9375 7.82031C8.9375 7.63798 9.00993 7.46311 9.13886 7.33418C9.2678 7.20525 9.44266 7.13281 9.625 7.13281H15.125C15.3073 7.13281 15.4822 7.20525 15.6111 7.33418C15.7401 7.46311 15.8125 7.63798 15.8125 7.82031C15.8125 8.00265 15.7401 8.17752 15.6111 8.30645C15.4822 8.43538 15.3073 8.50781 15.125 8.50781Z" fill="#FF9900"/>
</svg>
