<svg width="25" height="25" viewBox="0 0 25 25" fill="none" xmlns="http://www.w3.org/2000/svg">
<path d="M15.875 6.49999V22.25M9.125 2.74999V18.5M15.1845 6.34249L9.81547 2.90749C9.6019 2.80081 9.36595 2.74664 9.12723 2.7495C8.88852 2.75235 8.65393 2.81214 8.44297 2.9239L3.14891 6.47609C3.02846 6.53989 2.92769 6.63531 2.8574 6.75209C2.78712 6.86887 2.74999 7.0026 2.75 7.1389V21.0045C2.74999 21.1339 2.78343 21.261 2.84707 21.3736C2.91071 21.4862 3.00239 21.5805 3.1132 21.6472C3.22402 21.7139 3.3502 21.7508 3.47949 21.7543C3.60879 21.7578 3.7368 21.7279 3.85109 21.6673L8.43641 18.6772C8.64909 18.5645 8.88576 18.5047 9.12644 18.5027C9.36712 18.5007 9.60473 18.5567 9.81922 18.6659L15.0627 22.0878C15.2753 22.1961 15.5107 22.2522 15.7493 22.2513C15.9879 22.2504 16.2229 22.1926 16.4347 22.0827L21.8455 18.523C21.9674 18.4597 22.0696 18.3642 22.1409 18.2468C22.2123 18.1294 22.25 17.9947 22.25 17.8573V3.99546C22.25 3.86612 22.2166 3.73897 22.1529 3.62637C22.0893 3.51377 21.9976 3.41954 21.8868 3.35283C21.776 3.28613 21.6498 3.24921 21.5205 3.24568C21.3912 3.24214 21.2632 3.2721 21.1489 3.33265L16.5552 6.32609C16.3444 6.43753 16.1102 6.49715 15.8718 6.50001C15.6335 6.50286 15.3979 6.44886 15.1845 6.34249Z" stroke="black" stroke-width="1.5" stroke-linecap="round" stroke-linejoin="round"/>
</svg>
