<svg width="28" height="29" viewBox="0 0 28 29" fill="none" xmlns="http://www.w3.org/2000/svg">
<path d="M3.14399 3.01077L23.2925 23.1593C23.6748 23.5416 23.8896 24.0602 23.8896 24.6009C23.8896 25.1415 23.6748 25.6601 23.2925 26.0424C22.9101 26.4246 22.3916 26.6393 21.8509 26.6393C21.3103 26.6393 20.7918 26.4246 20.4094 26.0424L15.4875 21.0358C15.1654 20.7087 14.9847 20.2682 14.9844 19.8091V19.5067C14.9844 19.2749 14.9384 19.0454 14.849 18.8316C14.7597 18.6177 14.6287 18.4238 14.4638 18.2609L13.8283 17.6741C13.6126 17.4751 13.3502 17.3335 13.0654 17.2624C12.7807 17.1913 12.4826 17.193 12.1986 17.2673C11.7508 17.3841 11.2802 17.3819 10.8336 17.2607C10.3869 17.1395 9.9797 16.9037 9.65234 16.5766L4.98039 11.9041C2.20883 9.13249 1.18891 4.94726 3.14399 3.01077Z" stroke="white" stroke-width="1.5" stroke-linejoin="round"/>
<path d="M21.875 2.14999L17.6504 6.3746C17.3253 6.69962 17.0674 7.08549 16.8915 7.51019C16.7155 7.93488 16.625 8.39007 16.625 8.84976V9.66242C16.625 9.77739 16.6024 9.89125 16.5584 9.99747C16.5144 10.1037 16.4498 10.2002 16.3685 10.2815L15.75 10.9M17.5 12.65L18.1185 12.0315C18.1998 11.9501 18.2963 11.8856 18.4025 11.8416C18.5087 11.7976 18.6226 11.775 18.7376 11.775H19.5502C20.0099 11.775 20.4651 11.6844 20.8898 11.5085C21.3145 11.3326 21.7004 11.0747 22.0254 10.7496L26.25 6.52499M24.0625 4.33749L19.6875 8.71249M10.9375 20.525L5.48406 26.0091C5.07384 26.4191 4.51754 26.6495 3.9375 26.6495C3.35745 26.6495 2.80115 26.4191 2.39094 26.0091C1.98084 25.5988 1.75047 25.0425 1.75047 24.4625C1.75047 23.8824 1.98084 23.3261 2.39094 22.9159L7 18.3375" stroke="white" stroke-width="1.5" stroke-linecap="round" stroke-linejoin="round"/>
</svg>
