<svg width="17" height="16" viewBox="0 0 17 16" fill="none" xmlns="http://www.w3.org/2000/svg">
<g clip-path="url(#clip0_473_1086)">
<path fill-rule="evenodd" clip-rule="evenodd" d="M9.69395 5.00002L10.0449 5.87302L10.9849 5.93702L14.1819 6.15402L11.7219 8.20902L10.9999 8.81202L11.2299 9.72602L12.0119 12.834L9.29795 11.13L8.49995 10.629L7.70195 11.129L4.98795 12.834L5.76995 9.72602L5.99995 8.81202L5.27695 8.20902L2.81695 6.15402L6.01495 5.93702L6.95495 5.87302L7.30495 4.99902L8.49995 2.02502L9.69395 5.00002ZM1.97095 4.70802L5.91395 4.44002L7.38595 0.773019C7.78995 -0.23098 9.20995 -0.23098 9.61395 0.773019L11.0859 4.44002L15.0289 4.70802C16.1089 4.78102 16.5469 6.13202 15.7169 6.82602L12.6849 9.36002L13.6489 13.192C13.9129 14.242 12.7629 15.076 11.8469 14.502L8.49995 12.4L5.15295 14.501C4.23695 15.076 3.08695 14.241 3.35095 13.192L4.31495 9.36002L1.28295 6.82602C0.452949 6.13202 0.891949 4.78102 1.97095 4.70802Z" fill="#7B7B7B"/>
</g>
<defs>
<clipPath id="clip0_473_1086">
<rect width="16" height="16" fill="white" transform="translate(0.5)"/>
</clipPath>
</defs>
</svg>
